<svg width="116" height="50" viewBox="0 0 116 50" fill="none" xmlns="http://www.w3.org/2000/svg">
<path d="M77.4704 13.1752H83.3918L96.6541 35.0605H90.3677L80.4716 18.3628L75.1992 27.198H83.7163L86.2714 31.3318H72.928L70.5351 35.0199H64.2487L77.4704 13.1752ZM181.784 35.101H188.071L190.464 31.4129H203.807L201.252 27.2791H192.735L198.007 18.4439L207.903 35.1416H214.19L200.927 13.2562H195.006L181.784 35.101ZM96.2891 24.1583V27.0764C96.4108 32.8315 99.6554 35.2631 104.685 35.1416H121.232V30.6429H104.725C101.967 30.7239 101.764 28.8192 101.683 26.9143V24.1584V21.2809C101.764 19.5787 101.967 17.6334 104.725 17.6739H121.232V13.1753H104.685C99.6554 13.0537 96.4513 15.526 96.2891 21.2405V24.1583ZM159.113 17.8765H172.415C174.281 17.8765 175.214 18.6871 175.214 20.2677C175.214 21.8888 174.281 22.6589 172.415 22.6589H160.491L161.546 27.3602H171.726C173.713 27.3196 174.849 28.6976 175.011 30.6025L175.173 35.1011H180.446C180.446 35.1011 180.405 30.8862 180.283 30.0351C180.162 29.184 179.797 26.8333 177.728 25.6985C182.595 22.4968 180.811 13.2159 173.835 13.2159H153.759V35.101H159.112L159.113 17.8765ZM137.333 35.101H141.997C147.756 34.9795 150.19 31.7372 150.068 26.7117V13.1752H144.796V27.8059C144.877 30.5618 142.93 30.7644 141.064 30.8455H137.333H133.399C131.696 30.7645 129.749 30.5618 129.79 27.8059V13.1752H124.395V26.7522C124.274 31.7777 126.748 34.9795 132.466 35.101H137.333ZM49.9053 22.9242C49.4592 14.7374 46.6606 8.73919 42.8482 5.45643C38.7113 1.93046 31.0054 0.552479 25.0434 0.59303C19.0815 0.552479 11.3756 1.93046 7.23863 5.45643C3.42625 8.73928 0.627715 14.7375 0.181615 22.9242C-0.224 30.6244 1.43885 39.0138 5.81908 43.7557C10.037 48.4164 18.473 49.8754 25.0027 49.8754C31.5325 49.9159 39.9684 48.4164 44.1864 43.7557C48.5667 38.9733 50.27 30.5839 49.9053 22.9242ZM23.6237 2.65991C24.4349 2.61936 24.6376 2.61936 25.0027 2.61936C25.3677 2.61936 25.53 2.61936 26.3817 2.65991L26.4223 20.5734C26.1789 20.5734 23.8266 20.5734 23.5833 20.5734C23.5833 20.5734 23.5833 2.65991 23.6237 2.65991ZM3.46683 30.4621C3.22344 27.3821 2.29066 16.1557 6.75195 9.75221C8.65819 6.95579 11.4566 5.09147 14.2956 4.11881C18.2297 2.74092 22.9343 2.65982 22.9343 2.65982C21.1093 7.15854 17.3375 16.8042 16.6074 18.9521C15.7152 21.5864 14.9445 23.086 14.174 27.8278C13.6872 31.7186 12.8356 41.4048 12.5922 45.6198C7.3197 43.1071 4.15623 38.3248 3.46683 30.4621ZM24.9622 47.8084C21.2715 47.768 16.729 47.4032 13.1195 45.8631C14.3362 42.6208 20.1359 28.6791 23.34 23.2483C23.5833 23.2483 26.3817 23.2483 26.6251 23.2483C29.7886 28.6791 35.6288 42.6208 36.8457 45.8631C33.1953 47.4436 28.6934 47.768 24.9622 47.8084ZM46.4982 30.422C45.8088 38.325 42.6452 43.0668 37.3728 45.6201C37.1295 41.4051 36.2778 31.7189 35.7911 27.8281C35.0205 23.0457 34.2499 21.5867 33.3576 18.9524C32.6277 16.8043 28.8558 7.15864 27.0307 2.66001C27.0307 2.66001 31.7354 2.74101 35.6694 4.119C38.5084 5.09166 41.3069 6.99643 43.2131 9.7524C47.6744 16.1559 46.7415 27.3821 46.4982 30.422Z" fill="#5F5F5F"/>
</svg>

