<svg width="159" height="48" viewBox="0 0 159 48" fill="none" xmlns="http://www.w3.org/2000/svg">
<path d="M26.4397 10.4318L31.4735 19.152C32.0428 19.1404 32.612 19.1365 33.1889 19.1365C34.6604 19.1365 36.1163 19.1714 37.5452 19.2333L26.4397 0L14.2383 21.1346C16.3564 20.6505 18.6061 20.2478 20.9566 19.9303L26.4397 10.4318ZM17.4019 18.8616L26.4397 3.21007L34.7146 17.545C34.2035 17.5373 33.6962 17.5334 33.1851 17.5334C32.9217 17.5334 32.6584 17.5334 32.3913 17.5373L27.8259 9.6302L26.4358 7.22168L25.0457 9.6302L19.9537 18.4511C19.094 18.575 18.2422 18.7106 17.4019 18.8616Z" fill="#404040"/>
<path d="M18.9543 48C12.662 45.2352 8.81299 41.5334 8.81299 37.4676C8.81299 36.1123 9.23894 34.7996 10.0405 33.5489H45.8082L39.2912 22.2652C41.7695 22.06 44.3367 21.9516 46.966 21.9516C50.5091 21.9516 53.936 22.1491 57.1886 22.5169C57.0028 22.455 56.8092 22.3969 56.6156 22.3388C56.8053 22.3969 56.9989 22.455 57.1886 22.5169C57.4055 22.5402 57.6223 22.5673 57.843 22.5944C57.27 22.4472 56.6853 22.3117 56.0928 22.1762C50.7801 20.9913 44.6659 20.3137 38.1606 20.3059C38.1218 20.3059 38.0831 20.3059 38.0444 20.3059C36.5652 20.3059 35.1015 20.3408 33.6688 20.4105C33.1886 20.4337 32.7162 20.4608 32.2438 20.4879C27.7094 20.7706 23.45 21.3863 19.6165 22.2652C19.2835 22.3427 18.9582 22.4201 18.6329 22.4976C16.36 23.0552 14.2496 23.7096 12.3328 24.4453C5.26604 27.1559 0.867194 30.9777 0.867194 35.2101C0.859449 40.6389 8.11212 45.394 18.9543 48ZM33.6455 22.9197L36.7704 28.3291H16.1199C20.4955 25.8896 26.5749 23.9884 33.6455 22.9197Z" fill="#404040"/>
<path d="M81.8758 17.548V23.14H87.9718V24.94H81.8758V30.7H88.6918V32.5H79.6918V15.748H88.6918V17.548H81.8758ZM91.1804 25.876C91.1804 24.532 91.4524 23.356 91.9964 22.348C92.5404 21.324 93.2844 20.532 94.2284 19.972C95.1884 19.412 96.2524 19.132 97.4204 19.132C98.5724 19.132 99.5724 19.38 100.42 19.876C101.268 20.372 101.9 20.996 102.316 21.748V19.348H104.524V32.5H102.316V30.052C101.884 30.82 101.236 31.46 100.372 31.972C99.5244 32.468 98.5324 32.716 97.3964 32.716C96.2284 32.716 95.1724 32.428 94.2284 31.852C93.2844 31.276 92.5404 30.468 91.9964 29.428C91.4524 28.388 91.1804 27.204 91.1804 25.876ZM102.316 25.9C102.316 24.908 102.116 24.044 101.716 23.308C101.316 22.572 100.772 22.012 100.084 21.628C99.4124 21.228 98.6684 21.028 97.8524 21.028C97.0364 21.028 96.2924 21.22 95.6204 21.604C94.9484 21.988 94.4124 22.548 94.0124 23.284C93.6124 24.02 93.4124 24.884 93.4124 25.876C93.4124 26.884 93.6124 27.764 94.0124 28.516C94.4124 29.252 94.9484 29.82 95.6204 30.22C96.2924 30.604 97.0364 30.796 97.8524 30.796C98.6684 30.796 99.4124 30.604 100.084 30.22C100.772 29.82 101.316 29.252 101.716 28.516C102.116 27.764 102.316 26.892 102.316 25.9ZM110.399 21.484C110.783 20.732 111.327 20.148 112.031 19.732C112.751 19.316 113.623 19.108 114.647 19.108V21.364H114.071C111.623 21.364 110.399 22.692 110.399 25.348V32.5H108.215V19.348H110.399V21.484ZM119.832 21.148V28.9C119.832 29.54 119.968 29.996 120.24 30.268C120.512 30.524 120.984 30.652 121.656 30.652H123.264V32.5H121.296C120.08 32.5 119.168 32.22 118.56 31.66C117.952 31.1 117.648 30.18 117.648 28.9V21.148H115.944V19.348H117.648V16.036H119.832V19.348H123.264V21.148H119.832ZM132.439 19.108C133.431 19.108 134.327 19.324 135.127 19.756C135.927 20.172 136.551 20.804 136.999 21.652C137.463 22.5 137.695 23.532 137.695 24.748V32.5H135.535V25.06C135.535 23.748 135.207 22.748 134.551 22.06C133.895 21.356 132.999 21.004 131.863 21.004C130.711 21.004 129.791 21.364 129.103 22.084C128.431 22.804 128.095 23.852 128.095 25.228V32.5H125.911V14.74H128.095V21.22C128.527 20.548 129.119 20.028 129.871 19.66C130.639 19.292 131.495 19.108 132.439 19.108ZM143.446 14.74V32.5H141.262V14.74H143.446ZM158.496 19.348L150.576 38.692H148.32L150.912 32.356L145.608 19.348H148.032L152.16 30.004L156.24 19.348H158.496Z" fill="#404040"/>
</svg>
