<svg width="210" height="48" viewBox="0 0 210 48" fill="none" xmlns="http://www.w3.org/2000/svg">
<path d="M20.447 47.9999L20.4426 47.9911L18.6352 44.8556L4.28134 20.0002H0.662109L16.8234 47.9911L16.819 47.9999H16.8278H20.4382H20.447Z" fill="#404040"/>
<path d="M34.9236 47.9999L34.9192 47.9911L33.1118 44.8556L31.2999 41.7245L29.4925 38.589L27.6807 35.4535L25.8733 32.318L18.7579 20.0002H15.1387L24.0615 35.4535L25.8733 38.589L27.6807 41.7245L29.4925 44.8556L31.2999 47.9911L31.2955 47.9999H31.3043H34.9148H34.9236Z" fill="#404040"/>
<path d="M40.35 44.8556L38.5382 41.7245L36.7308 38.589L34.919 35.4535L33.1116 32.318L31.2997 29.1869L29.4923 26.0514L25.9962 20.0002H22.377L27.6805 29.1825L31.2997 35.4535L33.1116 38.589L34.919 41.7245L36.7308 44.8556L38.5382 47.9911L38.5338 47.9999H38.5426H42.1575H42.1619L42.1575 47.9911L40.35 44.8556Z" fill="#404040"/>
<path d="M48.152 0H44.5327L31.3223 22.8852L33.1297 26.0207L48.152 0Z" fill="#404040"/>
<path d="M24.0661 47.9999H27.6765H27.6853L27.6809 47.9911L25.8735 44.8556L24.0617 41.7245L22.2542 38.589L11.5196 20.0002H7.90039L20.4424 41.7201L22.2542 44.8556L24.0617 47.9911L24.0572 47.9999H24.0661Z" fill="#404040"/>
<path d="M36.7488 32.2873L55.3903 0H51.7711L34.9414 29.1518L34.959 29.187L36.7488 32.2873Z" fill="#404040"/>
<path d="M40.368 38.5583L62.6287 0H59.0095L38.5605 35.4228L38.5781 35.4536L40.368 38.5583Z" fill="#404040"/>
<path d="M69.8671 0H66.2479L42.1797 41.6894L42.1973 41.7246L43.9871 44.8249L69.8671 0Z" fill="#404040"/>
<path d="M104.603 15.772V32.5H102.419V24.916H93.8992V32.5H91.7152V15.772H93.8992V23.116H102.419V15.772H104.603ZM109.46 17.212C109.044 17.212 108.692 17.068 108.404 16.78C108.116 16.492 107.972 16.14 107.972 15.724C107.972 15.308 108.116 14.956 108.404 14.668C108.692 14.38 109.044 14.236 109.46 14.236C109.86 14.236 110.196 14.38 110.468 14.668C110.756 14.956 110.9 15.308 110.9 15.724C110.9 16.14 110.756 16.492 110.468 16.78C110.196 17.068 109.86 17.212 109.46 17.212ZM110.516 19.348V32.5H108.332V19.348H110.516ZM113.423 25.876C113.423 24.532 113.695 23.356 114.239 22.348C114.783 21.324 115.527 20.532 116.471 19.972C117.431 19.412 118.503 19.132 119.687 19.132C120.711 19.132 121.663 19.372 122.543 19.852C123.423 20.316 124.095 20.932 124.559 21.7V14.74H126.767V32.5H124.559V30.028C124.127 30.812 123.487 31.46 122.639 31.972C121.791 32.468 120.799 32.716 119.663 32.716C118.495 32.716 117.431 32.428 116.471 31.852C115.527 31.276 114.783 30.468 114.239 29.428C113.695 28.388 113.423 27.204 113.423 25.876ZM124.559 25.9C124.559 24.908 124.359 24.044 123.959 23.308C123.559 22.572 123.015 22.012 122.327 21.628C121.655 21.228 120.911 21.028 120.095 21.028C119.279 21.028 118.535 21.22 117.863 21.604C117.191 21.988 116.655 22.548 116.255 23.284C115.855 24.02 115.655 24.884 115.655 25.876C115.655 26.884 115.855 27.764 116.255 28.516C116.655 29.252 117.191 29.82 117.863 30.22C118.535 30.604 119.279 30.796 120.095 30.796C120.911 30.796 121.655 30.604 122.327 30.22C123.015 29.82 123.559 29.252 123.959 28.516C124.359 27.764 124.559 26.892 124.559 25.9ZM142.457 25.42C142.457 25.836 142.433 26.276 142.385 26.74H131.873C131.953 28.036 132.393 29.052 133.193 29.788C134.009 30.508 134.993 30.868 136.145 30.868C137.089 30.868 137.873 30.652 138.497 30.22C139.137 29.772 139.585 29.18 139.841 28.444H142.193C141.841 29.708 141.137 30.74 140.081 31.54C139.025 32.324 137.713 32.716 136.145 32.716C134.897 32.716 133.777 32.436 132.785 31.876C131.809 31.316 131.041 30.524 130.481 29.5C129.921 28.46 129.641 27.26 129.641 25.9C129.641 24.54 129.913 23.348 130.457 22.324C131.001 21.3 131.761 20.516 132.737 19.972C133.729 19.412 134.865 19.132 136.145 19.132C137.393 19.132 138.497 19.404 139.457 19.948C140.417 20.492 141.153 21.244 141.665 22.204C142.193 23.148 142.457 24.22 142.457 25.42ZM140.201 24.964C140.201 24.132 140.017 23.42 139.649 22.828C139.281 22.22 138.777 21.764 138.137 21.46C137.513 21.14 136.817 20.98 136.049 20.98C134.945 20.98 134.001 21.332 133.217 22.036C132.449 22.74 132.009 23.716 131.897 24.964H140.201ZM144.524 25.876C144.524 24.532 144.796 23.356 145.34 22.348C145.884 21.324 146.628 20.532 147.572 19.972C148.532 19.412 149.596 19.132 150.764 19.132C151.916 19.132 152.916 19.38 153.764 19.876C154.612 20.372 155.244 20.996 155.66 21.748V19.348H157.868V32.5H155.66V30.052C155.228 30.82 154.58 31.46 153.716 31.972C152.868 32.468 151.876 32.716 150.74 32.716C149.572 32.716 148.516 32.428 147.572 31.852C146.628 31.276 145.884 30.468 145.34 29.428C144.796 28.388 144.524 27.204 144.524 25.876ZM155.66 25.9C155.66 24.908 155.46 24.044 155.06 23.308C154.66 22.572 154.116 22.012 153.428 21.628C152.756 21.228 152.012 21.028 151.196 21.028C150.38 21.028 149.636 21.22 148.964 21.604C148.292 21.988 147.756 22.548 147.356 23.284C146.956 24.02 146.756 24.884 146.756 25.876C146.756 26.884 146.956 27.764 147.356 28.516C147.756 29.252 148.292 29.82 148.964 30.22C149.636 30.604 150.38 30.796 151.196 30.796C152.012 30.796 152.756 30.604 153.428 30.22C154.116 29.82 154.66 29.252 155.06 28.516C155.46 27.764 155.66 26.892 155.66 25.9ZM179.079 19.348L174.975 32.5H172.719L169.551 22.06L166.383 32.5H164.127L159.999 19.348H162.231L165.255 30.388L168.519 19.348H170.751L173.943 30.412L176.919 19.348H179.079ZM180.43 25.876C180.43 24.532 180.702 23.356 181.246 22.348C181.79 21.324 182.534 20.532 183.478 19.972C184.438 19.412 185.502 19.132 186.67 19.132C187.822 19.132 188.822 19.38 189.67 19.876C190.518 20.372 191.15 20.996 191.566 21.748V19.348H193.774V32.5H191.566V30.052C191.134 30.82 190.486 31.46 189.622 31.972C188.774 32.468 187.782 32.716 186.646 32.716C185.478 32.716 184.422 32.428 183.478 31.852C182.534 31.276 181.79 30.468 181.246 29.428C180.702 28.388 180.43 27.204 180.43 25.876ZM191.566 25.9C191.566 24.908 191.366 24.044 190.966 23.308C190.566 22.572 190.022 22.012 189.334 21.628C188.662 21.228 187.918 21.028 187.102 21.028C186.286 21.028 185.542 21.22 184.87 21.604C184.198 21.988 183.662 22.548 183.262 23.284C182.862 24.02 182.662 24.884 182.662 25.876C182.662 26.884 182.862 27.764 183.262 28.516C183.662 29.252 184.198 29.82 184.87 30.22C185.542 30.604 186.286 30.796 187.102 30.796C187.918 30.796 188.662 30.604 189.334 30.22C190.022 29.82 190.566 29.252 190.966 28.516C191.366 27.764 191.566 26.892 191.566 25.9ZM208.793 19.348L200.873 38.692H198.617L201.209 32.356L195.905 19.348H198.329L202.457 30.004L206.537 19.348H208.793Z" fill="#404040"/>
</svg>
