<svg width="116" height="48" viewBox="0 0 116 48" fill="none" xmlns="http://www.w3.org/2000/svg">
<path d="M11.165 18.7859H12.1688V19.7897V35.2277L16.7057 30.6957V14.2539H0.833984V46.5625L5.36597 42.0306V19.7897V18.7859H6.36983H11.165Z" fill="#404040"/>
<path d="M29.0392 36.6653H30.043V37.6691V42.4594V43.4633H29.0392H9.10816L4.57617 48.0001L34.575 47.9952V32.1284H20.443L15.9061 36.6653H29.0392Z" fill="#404040"/>
<path d="M44.3015 18.0499V19.0537H43.2977H33.5222L28.9902 23.5857H48.8335V3.74243L44.3015 8.27442V18.0499Z" fill="#404040"/>
<path d="M42.8643 4.53198L47.3963 0H25.248V22.1482L29.78 17.6163V5.53584V4.53198H30.7839H42.8643Z" fill="#404040"/>
<path d="M83.57 15.772V32.5H81.386V24.916H72.866V32.5H70.682V15.772H72.866V23.116H81.386V15.772H83.57ZM93.0352 32.716C91.8032 32.716 90.6832 32.436 89.6752 31.876C88.6832 31.316 87.8992 30.524 87.3232 29.5C86.7632 28.46 86.4832 27.26 86.4832 25.9C86.4832 24.556 86.7712 23.372 87.3472 22.348C87.9392 21.308 88.7392 20.516 89.7472 19.972C90.7552 19.412 91.8832 19.132 93.1312 19.132C94.3792 19.132 95.5072 19.412 96.5152 19.972C97.5232 20.516 98.3152 21.3 98.8912 22.324C99.4832 23.348 99.7792 24.54 99.7792 25.9C99.7792 27.26 99.4752 28.46 98.8672 29.5C98.2752 30.524 97.4672 31.316 96.4432 31.876C95.4192 32.436 94.2832 32.716 93.0352 32.716ZM93.0352 30.796C93.8192 30.796 94.5552 30.612 95.2432 30.244C95.9312 29.876 96.4832 29.324 96.8992 28.588C97.3312 27.852 97.5472 26.956 97.5472 25.9C97.5472 24.844 97.3392 23.948 96.9232 23.212C96.5072 22.476 95.9632 21.932 95.2912 21.58C94.6192 21.212 93.8912 21.028 93.1072 21.028C92.3072 21.028 91.5712 21.212 90.8992 21.58C90.2432 21.932 89.7152 22.476 89.3152 23.212C88.9152 23.948 88.7152 24.844 88.7152 25.9C88.7152 26.972 88.9072 27.876 89.2912 28.612C89.6912 29.348 90.2192 29.9 90.8752 30.268C91.5312 30.62 92.2512 30.796 93.0352 30.796ZM118.467 19.108C119.491 19.108 120.403 19.324 121.203 19.756C122.003 20.172 122.635 20.804 123.099 21.652C123.563 22.5 123.795 23.532 123.795 24.748V32.5H121.635V25.06C121.635 23.748 121.307 22.748 120.651 22.06C120.011 21.356 119.139 21.004 118.035 21.004C116.899 21.004 115.995 21.372 115.323 22.108C114.651 22.828 114.315 23.876 114.315 25.252V32.5H112.155V25.06C112.155 23.748 111.827 22.748 111.171 22.06C110.531 21.356 109.659 21.004 108.555 21.004C107.419 21.004 106.515 21.372 105.843 22.108C105.171 22.828 104.835 23.876 104.835 25.252V32.5H102.651V19.348H104.835V21.244C105.267 20.556 105.843 20.028 106.563 19.66C107.299 19.292 108.107 19.108 108.987 19.108C110.091 19.108 111.067 19.356 111.915 19.852C112.763 20.348 113.395 21.076 113.811 22.036C114.179 21.108 114.787 20.388 115.635 19.876C116.483 19.364 117.427 19.108 118.467 19.108ZM139.377 25.42C139.377 25.836 139.353 26.276 139.305 26.74H128.793C128.873 28.036 129.313 29.052 130.113 29.788C130.929 30.508 131.913 30.868 133.065 30.868C134.009 30.868 134.793 30.652 135.417 30.22C136.057 29.772 136.505 29.18 136.761 28.444H139.113C138.761 29.708 138.057 30.74 137.001 31.54C135.945 32.324 134.633 32.716 133.065 32.716C131.817 32.716 130.697 32.436 129.705 31.876C128.729 31.316 127.961 30.524 127.401 29.5C126.841 28.46 126.561 27.26 126.561 25.9C126.561 24.54 126.833 23.348 127.377 22.324C127.921 21.3 128.681 20.516 129.657 19.972C130.649 19.412 131.785 19.132 133.065 19.132C134.313 19.132 135.417 19.404 136.377 19.948C137.337 20.492 138.073 21.244 138.585 22.204C139.113 23.148 139.377 24.22 139.377 25.42ZM137.121 24.964C137.121 24.132 136.937 23.42 136.569 22.828C136.201 22.22 135.697 21.764 135.057 21.46C134.433 21.14 133.737 20.98 132.969 20.98C131.865 20.98 130.921 21.332 130.137 22.036C129.369 22.74 128.929 23.716 128.817 24.964H137.121ZM144.444 14.74V32.5H142.26V14.74H144.444ZM159.494 19.348L151.574 38.692H149.318L151.91 32.356L146.606 19.348H149.03L153.158 30.004L157.238 19.348H159.494Z" fill="#404040"/>
</svg>
