<svg width="210" height="48" viewBox="0 0 210 48" fill="none" xmlns="http://www.w3.org/2000/svg">
<path d="M23.1287 4.1337C23.1914 4.1337 23.2593 4.13892 23.3221 4.14415C23.6931 4.15982 24.0641 4.18073 24.4508 4.21208C26.1911 4.33751 27.8738 4.59358 29.4625 4.96461V0.924985C27.8372 0.512138 26.097 0.235165 24.2888 0.104518C23.6251 0.0522585 22.9197 0.0209038 22.1933 0.00522603C21.9999 1.19728e-07 21.8065 0 21.6079 0C21.6027 0 21.5975 0 21.587 0C18.1902 0 14.6993 0.449428 11.2032 1.33261C7.23146 2.33076 3.42699 3.8724 0.166016 5.79554V45.826C3.3486 44.0858 6.94403 42.6905 10.6806 41.7498C13.6332 41.0077 16.6067 40.5531 19.5176 40.4015H19.5437H19.5542C19.5803 40.4015 19.6064 40.3963 19.6273 40.3963C20.129 40.3702 20.6255 40.3545 21.1376 40.3493V36.2521C17.3802 36.2887 13.5234 36.8009 9.67195 37.7677C8.28708 38.1178 6.94403 38.515 5.68458 38.9435L4.26313 39.4295V37.9244V8.8945V8.21513L4.87456 7.92248C7.16351 6.83026 9.63014 5.94709 12.2013 5.29907C14.7463 4.65629 17.2861 4.26957 19.7527 4.13892C19.805 4.1337 19.8468 4.1337 19.8782 4.1337C20.4478 4.10757 21.0226 4.09189 21.587 4.09189C21.7961 4.09189 21.9999 4.09711 22.2037 4.09711H22.2298C22.5329 4.10757 22.8308 4.11279 23.1287 4.1337Z" fill="#404040"/>
<path d="M33.2368 8.36152C32.2961 8.36152 31.3607 8.33016 30.4618 8.26223C29.3696 8.18384 28.2826 8.05319 27.2374 7.87551C26.5999 7.76577 25.9728 7.64035 25.3613 7.49925V47.0751C27.7652 47.6865 30.4096 48.0001 33.2368 48.0001C36.6284 48.0001 40.1245 47.5506 43.6259 46.6727C47.5924 45.6693 51.3968 44.1329 54.663 42.2097V2.88477C51.4804 4.62499 47.885 6.02031 44.1537 6.96098C40.4799 7.89119 36.8061 8.36152 33.2368 8.36152ZM49.1445 9.04089L50.5659 8.5601V10.0599V39.0951V39.7745L49.9545 40.0671C47.6708 41.1541 45.2041 42.0373 42.6225 42.6853C39.4504 43.4849 36.2939 43.8925 33.242 43.8925C32.2961 43.8925 31.3554 43.8507 30.4461 43.7723L29.4637 43.6887V42.701V42.5912V39.9051L29.4689 39.9103V12.7304V11.5807L30.6134 11.6538C31.4443 11.7061 32.3066 11.7322 33.242 11.7322C37.151 11.7322 41.1593 11.2201 45.1571 10.2115C46.4949 9.88226 47.838 9.48509 49.1445 9.04089Z" fill="#404040"/>
<path d="M81.8141 32.668C80.7101 32.668 79.7181 32.476 78.8381 32.092C77.9741 31.692 77.2941 31.148 76.7981 30.46C76.3021 29.756 76.0461 28.948 76.0301 28.036H78.3581C78.4381 28.82 78.7581 29.484 79.3181 30.028C79.8941 30.556 80.7261 30.82 81.8141 30.82C82.8541 30.82 83.6701 30.564 84.2621 30.052C84.8701 29.524 85.1741 28.852 85.1741 28.036C85.1741 27.396 84.9981 26.876 84.6461 26.476C84.2941 26.076 83.8541 25.772 83.3261 25.564C82.7981 25.356 82.0861 25.132 81.1901 24.892C80.0861 24.604 79.1981 24.316 78.5261 24.028C77.8701 23.74 77.3021 23.292 76.8221 22.684C76.3581 22.06 76.1261 21.228 76.1261 20.188C76.1261 19.276 76.3581 18.468 76.8221 17.764C77.2861 17.06 77.9341 16.516 78.7661 16.132C79.6141 15.748 80.5821 15.556 81.6701 15.556C83.2381 15.556 84.5181 15.948 85.5101 16.732C86.5181 17.516 87.0861 18.556 87.2141 19.852H84.8141C84.7341 19.212 84.3981 18.652 83.8061 18.172C83.2141 17.676 82.4301 17.428 81.4541 17.428C80.5421 17.428 79.7981 17.668 79.2221 18.148C78.6461 18.612 78.3581 19.268 78.3581 20.116C78.3581 20.724 78.5261 21.22 78.8621 21.604C79.2141 21.988 79.6381 22.284 80.1341 22.492C80.6461 22.684 81.3581 22.908 82.2701 23.164C83.3741 23.468 84.2621 23.772 84.9341 24.076C85.6061 24.364 86.1821 24.82 86.6621 25.444C87.1421 26.052 87.3821 26.884 87.3821 27.94C87.3821 28.756 87.1661 29.524 86.7341 30.244C86.3021 30.964 85.6621 31.548 84.8141 31.996C83.9661 32.444 82.9661 32.668 81.8141 32.668ZM102.596 25.42C102.596 25.836 102.572 26.276 102.524 26.74H92.012C92.092 28.036 92.532 29.052 93.332 29.788C94.148 30.508 95.132 30.868 96.284 30.868C97.228 30.868 98.012 30.652 98.636 30.22C99.276 29.772 99.724 29.18 99.98 28.444H102.332C101.98 29.708 101.276 30.74 100.22 31.54C99.164 32.324 97.852 32.716 96.284 32.716C95.036 32.716 93.916 32.436 92.924 31.876C91.948 31.316 91.18 30.524 90.62 29.5C90.06 28.46 89.78 27.26 89.78 25.9C89.78 24.54 90.052 23.348 90.596 22.324C91.14 21.3 91.9 20.516 92.876 19.972C93.868 19.412 95.004 19.132 96.284 19.132C97.532 19.132 98.636 19.404 99.596 19.948C100.556 20.492 101.292 21.244 101.804 22.204C102.332 23.148 102.596 24.22 102.596 25.42ZM100.34 24.964C100.34 24.132 100.156 23.42 99.788 22.828C99.42 22.22 98.916 21.764 98.276 21.46C97.652 21.14 96.956 20.98 96.188 20.98C95.084 20.98 94.14 21.332 93.356 22.036C92.588 22.74 92.148 23.716 92.036 24.964H100.34ZM107.663 21.484C108.047 20.732 108.591 20.148 109.295 19.732C110.015 19.316 110.887 19.108 111.911 19.108V21.364H111.335C108.887 21.364 107.663 22.692 107.663 25.348V32.5H105.479V19.348H107.663V21.484ZM126.432 25.42C126.432 25.836 126.408 26.276 126.36 26.74H115.848C115.928 28.036 116.368 29.052 117.168 29.788C117.984 30.508 118.968 30.868 120.12 30.868C121.064 30.868 121.848 30.652 122.472 30.22C123.112 29.772 123.56 29.18 123.816 28.444H126.168C125.816 29.708 125.112 30.74 124.056 31.54C123 32.324 121.688 32.716 120.12 32.716C118.872 32.716 117.752 32.436 116.76 31.876C115.784 31.316 115.016 30.524 114.456 29.5C113.896 28.46 113.616 27.26 113.616 25.9C113.616 24.54 113.888 23.348 114.432 22.324C114.976 21.3 115.736 20.516 116.712 19.972C117.704 19.412 118.84 19.132 120.12 19.132C121.368 19.132 122.472 19.404 123.432 19.948C124.392 20.492 125.128 21.244 125.64 22.204C126.168 23.148 126.432 24.22 126.432 25.42ZM124.176 24.964C124.176 24.132 123.992 23.42 123.624 22.828C123.256 22.22 122.752 21.764 122.112 21.46C121.488 21.14 120.792 20.98 120.024 20.98C118.92 20.98 117.976 21.332 117.192 22.036C116.424 22.74 115.984 23.716 115.872 24.964H124.176ZM135.723 19.108C137.323 19.108 138.619 19.596 139.611 20.572C140.603 21.532 141.099 22.924 141.099 24.748V32.5H138.939V25.06C138.939 23.748 138.611 22.748 137.955 22.06C137.299 21.356 136.403 21.004 135.267 21.004C134.115 21.004 133.195 21.364 132.507 22.084C131.835 22.804 131.499 23.852 131.499 25.228V32.5H129.315V19.348H131.499V21.22C131.931 20.548 132.515 20.028 133.251 19.66C134.003 19.292 134.827 19.108 135.723 19.108ZM143.85 25.876C143.85 24.532 144.122 23.356 144.666 22.348C145.21 21.324 145.954 20.532 146.898 19.972C147.858 19.412 148.93 19.132 150.114 19.132C151.138 19.132 152.09 19.372 152.97 19.852C153.85 20.316 154.522 20.932 154.986 21.7V14.74H157.194V32.5H154.986V30.028C154.554 30.812 153.914 31.46 153.066 31.972C152.218 32.468 151.226 32.716 150.09 32.716C148.922 32.716 147.858 32.428 146.898 31.852C145.954 31.276 145.21 30.468 144.666 29.428C144.122 28.388 143.85 27.204 143.85 25.876ZM154.986 25.9C154.986 24.908 154.786 24.044 154.386 23.308C153.986 22.572 153.442 22.012 152.754 21.628C152.082 21.228 151.338 21.028 150.522 21.028C149.706 21.028 148.962 21.22 148.29 21.604C147.618 21.988 147.082 22.548 146.682 23.284C146.282 24.02 146.082 24.884 146.082 25.876C146.082 26.884 146.282 27.764 146.682 28.516C147.082 29.252 147.618 29.82 148.29 30.22C148.962 30.604 149.706 30.796 150.522 30.796C151.338 30.796 152.082 30.604 152.754 30.22C153.442 29.82 153.986 29.252 154.386 28.516C154.786 27.764 154.986 26.892 154.986 25.9ZM162.013 17.212C161.597 17.212 161.245 17.068 160.957 16.78C160.669 16.492 160.525 16.14 160.525 15.724C160.525 15.308 160.669 14.956 160.957 14.668C161.245 14.38 161.597 14.236 162.013 14.236C162.413 14.236 162.749 14.38 163.021 14.668C163.309 14.956 163.453 15.308 163.453 15.724C163.453 16.14 163.309 16.492 163.021 16.78C162.749 17.068 162.413 17.212 162.013 17.212ZM163.069 19.348V32.5H160.885V19.348H163.069ZM168.975 21.772C169.407 21.02 170.047 20.396 170.895 19.9C171.759 19.388 172.759 19.132 173.895 19.132C175.063 19.132 176.119 19.412 177.063 19.972C178.023 20.532 178.775 21.324 179.319 22.348C179.863 23.356 180.135 24.532 180.135 25.876C180.135 27.204 179.863 28.388 179.319 29.428C178.775 30.468 178.023 31.276 177.063 31.852C176.119 32.428 175.063 32.716 173.895 32.716C172.775 32.716 171.783 32.468 170.919 31.972C170.071 31.46 169.423 30.828 168.975 30.076V38.74H166.791V19.348H168.975V21.772ZM177.903 25.876C177.903 24.884 177.703 24.02 177.303 23.284C176.903 22.548 176.359 21.988 175.671 21.604C174.999 21.22 174.255 21.028 173.439 21.028C172.639 21.028 171.895 21.228 171.207 21.628C170.535 22.012 169.991 22.58 169.575 23.332C169.175 24.068 168.975 24.924 168.975 25.9C168.975 26.892 169.175 27.764 169.575 28.516C169.991 29.252 170.535 29.82 171.207 30.22C171.895 30.604 172.639 30.796 173.439 30.796C174.255 30.796 174.999 30.604 175.671 30.22C176.359 29.82 176.903 29.252 177.303 28.516C177.703 27.764 177.903 26.884 177.903 25.876ZM184.138 17.212C183.722 17.212 183.37 17.068 183.082 16.78C182.794 16.492 182.65 16.14 182.65 15.724C182.65 15.308 182.794 14.956 183.082 14.668C183.37 14.38 183.722 14.236 184.138 14.236C184.538 14.236 184.874 14.38 185.146 14.668C185.434 14.956 185.578 15.308 185.578 15.724C185.578 16.14 185.434 16.492 185.146 16.78C184.874 17.068 184.538 17.212 184.138 17.212ZM185.194 19.348V32.5H183.01V19.348H185.194ZM191.58 21.148V28.9C191.58 29.54 191.716 29.996 191.988 30.268C192.26 30.524 192.732 30.652 193.404 30.652H195.012V32.5H193.044C191.828 32.5 190.916 32.22 190.308 31.66C189.7 31.1 189.396 30.18 189.396 28.9V21.148H187.692V19.348H189.396V16.036H191.58V19.348H195.012V21.148H191.58ZM208.987 19.348L201.067 38.692H198.811L201.403 32.356L196.099 19.348H198.523L202.651 30.004L206.731 19.348H208.987Z" fill="#404040"/>
</svg>
